<svg width="64" height="64" version="1.1" viewBox="0 0 317.02 317.02" xmlns="http://www.w3.org/2000/svg">
    <path d="m22.21 134.34-22.21-22.21c42.401-42.403 98.694-65.755 158.51-65.755 59.813 0 116.1 23.351 158.51 65.751l-22.21 22.21c-36.469-36.468-84.874-56.552-136.3-56.552-51.425 0-99.83 20.085-136.3 56.556z" fill="#61B4E4"></path>
    <path d="m63.944 176.08-22.211-22.21c31.237-31.237 72.709-48.439 116.78-48.439 44.067 0 85.537 17.201 116.77 48.437l-22.21 22.21c-25.304-25.303-58.888-39.238-94.564-39.238s-69.26 13.935-94.564 39.24z" fill="#005CB9"></path>
    <path d="m105.68 217.81-22.211-22.21c20.072-20.071 46.723-31.125 75.041-31.125s54.967 11.053 75.039 31.123l-22.211 22.21c-14.138-14.137-32.898-21.923-52.828-21.923-19.929-1e-3 -38.692 7.786-52.83 21.925z" fill="#005CB9"></path>
    <path d="m158.51 224.15c-12.836 0-24.457 5.204-32.871 13.615l32.871 32.871 32.871-32.871c-8.413-8.412-20.035-13.615-32.871-13.615z" fill="#005CB9"></path>
</svg>